<svg width="75" height="13" viewBox="0 0 75 13" fill="none" xmlns="http://www.w3.org/2000/svg">
<path fill-rule="evenodd" clip-rule="evenodd" d="M66.5905 0.897441V12.5051H66.0778V0.897441H66.5905ZM64.1594 10.7736C63.0916 11.8053 61.6075 12.4448 59.9666 12.4448C58.3318 12.4448 56.8477 11.8053 55.7739 10.7736C54.7061 9.73594 54.0425 8.31213 54.0425 6.73749C54.0425 5.16285 54.7061 3.73903 55.7739 2.70134C56.8477 1.66968 58.3318 1.03017 59.9666 1.03017C61.6075 1.03017 63.0916 1.66968 64.1594 2.70134C64.3524 2.88233 64.5274 3.07539 64.6902 3.28052L65.0462 3.02713C64.8712 2.79787 64.6782 2.58671 64.467 2.38158C63.3148 1.27149 61.7221 0.589752 59.9666 0.589752C58.2111 0.589752 56.6185 1.27149 55.4662 2.38158C54.314 3.49771 53.6021 5.04218 53.6021 6.73749C53.6021 8.43279 54.314 9.97726 55.4662 11.0934C56.6185 12.2035 58.2111 12.8852 59.9666 12.8852C61.7221 12.8852 63.3148 12.2035 64.467 11.0934C64.6902 10.8762 64.8953 10.6469 65.0824 10.3996L64.7204 10.1462C64.5515 10.3694 64.3645 10.5806 64.1594 10.7736ZM59.9666 9.95313C60.8836 9.95313 61.7101 9.58511 62.3134 9.00593C62.428 8.89734 62.5305 8.78271 62.6271 8.66205L62.2651 8.40866C62.1867 8.50519 62.1022 8.60172 62.0057 8.69221C61.4869 9.19296 60.763 9.50668 59.9666 9.50668C59.1703 9.50668 58.4464 9.19296 57.9276 8.69221C57.4088 8.19147 57.089 7.49766 57.089 6.73749C57.089 5.97128 57.4088 5.28351 57.9276 4.78276C58.4464 4.28201 59.1703 3.96829 59.9666 3.96829C60.763 3.96829 61.4869 4.28201 62.0057 4.78276C62.0841 4.86119 62.1625 4.93962 62.2289 5.02409L62.5909 4.77069C62.5064 4.6621 62.4099 4.55954 62.3134 4.46301C61.7101 3.88383 60.8836 3.52184 59.9666 3.52184C59.0557 3.52184 58.2232 3.88383 57.6259 4.46301C57.0227 5.04822 56.6487 5.85062 56.6487 6.73749C56.6487 7.62435 57.0227 8.42676 57.6259 9.00593C58.2232 9.58511 59.0557 9.95313 59.9666 9.95313ZM59.9666 10.9245C61.1611 10.9245 62.241 10.4599 63.0252 9.69974C63.176 9.55495 63.3148 9.39809 63.4415 9.23519L63.0795 8.9818C62.9709 9.12056 62.8503 9.25329 62.7236 9.37999C62.0177 10.0617 61.0465 10.484 59.9666 10.484C58.8928 10.484 57.9155 10.0617 57.2157 9.37999C56.5099 8.70428 56.0755 7.76915 56.0755 6.73749C56.0755 5.70583 56.5099 4.77069 57.2157 4.09499C57.9155 3.40721 58.8928 2.99093 59.9666 2.99093C61.0465 2.99093 62.0177 3.40721 62.7236 4.09499C62.8382 4.20358 62.9468 4.32424 63.0433 4.44491L63.4053 4.19152C63.2906 4.04672 63.164 3.90796 63.0252 3.77523C62.241 3.01506 61.1611 2.55051 59.9666 2.55051C58.7722 2.55051 57.6923 3.01506 56.9081 3.77523C56.1238 4.5354 55.6352 5.57913 55.6352 6.73749C55.6352 7.89584 56.1238 8.93957 56.9081 9.69974C57.6923 10.4599 58.7722 10.9245 59.9666 10.9245ZM59.9666 11.9079C61.4446 11.9079 62.7779 11.3287 63.7491 10.3996C63.9301 10.2186 64.1051 10.0255 64.2619 9.8204L63.9 9.56098C63.7612 9.74197 63.6104 9.92297 63.4415 10.0798C62.5547 10.9365 61.324 11.4674 59.9666 11.4674C58.6093 11.4674 57.3846 10.9365 56.4918 10.0798C55.605 9.21709 55.0621 8.04064 55.0621 6.73749C55.0621 5.43434 55.605 4.25185 56.4918 3.39515C57.3846 2.53845 58.6093 2.00753 59.9666 2.00753C61.324 2.00753 62.5547 2.53845 63.4415 3.39515C63.5923 3.53994 63.7371 3.70283 63.8638 3.86573L64.2257 3.60631C64.0809 3.41928 63.918 3.24432 63.7491 3.07539C62.7779 2.14629 61.4446 1.56712 59.9666 1.56712C58.4947 1.56712 57.1554 2.14629 56.1902 3.07539C55.2189 4.01656 54.6217 5.30764 54.6217 6.73749C54.6217 8.1613 55.2189 9.45842 56.1902 10.3996C57.1554 11.3287 58.4947 11.9079 59.9666 11.9079ZM27.9029 12.5051L32.2705 1.57918L32.5239 0.945705H32.0473L32.0353 0.981904L27.4263 12.5051H27.9029L32.2705 1.57918L32.5541 2.29109L32.8014 2.91853L33.1272 3.73903L33.3745 4.37251L33.646 5.06028L33.9054 5.71186L34.0924 6.18244L35.0456 8.59568L35.2567 9.12056L35.4317 9.56098L35.6609 10.1462L35.8238 10.5625L36.041 11.1115L36.59 12.5051H37.1027L36.5538 11.1115L36.3305 10.5625L36.1677 10.1462L35.9384 9.56098L35.7635 9.12056L35.5584 8.59568L34.3458 5.5369L34.0924 6.18244L34.3458 5.5369L34.1588 5.06632L33.9054 4.42077L33.6339 3.733L33.3806 3.09349L33.0608 2.27902L32.8074 1.64555L32.5299 0.945705H32.5239L27.9029 12.5051ZM34.4845 4.25185L34.6716 4.72243L36.2039 8.59568L36.415 9.12056L36.59 9.56098L36.8192 10.1462L36.9821 10.5625L37.1992 11.1115L37.7482 12.5051H38.2067L37.0424 9.56098L36.8675 9.12056L36.6563 8.59568L34.9008 4.15532L34.7138 3.68474L34.4604 3.03316L34.1829 2.33935L33.9356 1.70588L33.6339 0.945705H33.1815L33.3866 1.46455L33.7063 2.27902L33.9597 2.9125L34.2312 3.60027L34.4845 4.25185ZM35.2567 2.32125L34.7138 0.945705H34.2191L34.4845 1.60331L34.756 2.29109L35.0094 2.93663L35.1964 3.40721L37.2475 8.59568L38.7979 12.5051H39.2866L35.4437 2.79184L35.2567 2.32125ZM35.3291 0.945705L39.9079 12.5051H40.3905L35.8117 0.945705H35.3291ZM35.4618 10.5625H32.3369L32.1197 11.1115H35.679L35.4618 10.5625ZM35.0637 9.56098H32.7351L32.5058 10.1462H35.2929L35.0637 9.56098ZM34.6836 8.59568H33.1272L32.91 9.12056H34.8948L34.6836 8.59568ZM31.6854 8.59568L33.1935 4.83103L32.9402 4.19755L31.1786 8.59568L29.6162 12.5051H30.1229L31.2993 9.56098L31.4742 9.12056L31.6854 8.59568ZM32.7471 8.59568L33.7184 6.16434L33.465 5.5188L32.2343 8.59568L32.0232 9.12056L31.8422 9.56098L31.613 10.1462L31.4501 10.5625L31.2269 11.1115L30.6719 12.5051H31.1847L31.7397 11.1115L31.9629 10.5625L32.1318 10.1462L32.361 9.56098L32.536 9.12056L32.7471 8.59568ZM32.3671 2.74357L28.4699 12.5051H28.9707L32.6204 3.37705L32.3671 2.74357ZM44.8125 12.5051V7.40716L44.2997 6.57459V12.5051H44.8125ZM42.7554 1.25339L43.3043 2.15233L43.7749 2.9125L44.2997 3.78127L44.8125 4.6078L48.9992 11.4373L49.518 12.2879L49.6568 12.5051H49.9886V12.2397L49.518 11.4795L48.9992 10.6349L44.8125 3.8054L44.2997 2.9668L43.7749 2.10406L43.3043 1.34389L43.0087 0.867275H42.7554H42.5141L42.7554 1.25339ZM41.7117 0.867275H41.3196H41.2713V12.5051H41.7117V1.51282L42.2004 2.30315L42.7554 3.20209L43.3043 4.10705L43.7749 4.86722L44.2997 5.72996L44.8125 6.56253L48.4563 12.5051H48.9811L44.8125 5.70583L44.2997 4.87929L43.7749 4.01656L43.3043 3.25035L42.7554 2.35142L42.2004 1.45249L41.8444 0.867275H41.7117ZM44.2997 0.873308V0.867275H43.7749V1.04827L44.2997 1.911L44.8125 2.74357L48.9992 9.57305L49.518 10.4237L49.9886 11.1839L50.4832 11.9984L50.7969 12.5051H50.8874H51.4062L50.8874 11.6545L50.4832 10.9908L49.9886 10.1764L49.518 9.41015L48.9992 8.55948L44.8125 1.70588L44.2997 0.873308ZM49.9886 0.867275V7.64849L50.4832 8.46295V0.867275H49.9886ZM48.9992 6.04368L49.518 6.88831V0.867275H48.9992V6.04368ZM48.9992 6.77369L45.3916 0.867275H44.8427L48.9992 7.66659L49.518 8.51725L49.9886 9.27742L50.4832 10.0979L50.8874 10.7616L51.4726 11.7148L51.9552 12.5051H52.0457H52.4559V12.4327V0.867275H52.0457V11.757L51.4726 10.8159L50.8874 9.86264L50.4832 9.19899L49.9886 8.38452L49.518 7.62435L48.9992 6.77369ZM50.8874 9.12056L51.4726 10.0738V0.867275H50.8874V9.12056ZM42.7554 12.5051V4.05275L42.2004 3.14779V12.5051H42.7554ZM43.7749 12.5051V5.71186L43.3043 4.95169V12.5051H43.7749ZM18.8297 12.5051V7.40716L18.3169 6.57459V12.5051H18.8297ZM16.7726 1.25339L17.3215 2.15233L17.786 2.9125L18.3169 3.78127L18.8297 4.6078L23.0164 11.4373L23.5352 12.2879L23.6679 12.5051H24.0058V12.2397L23.5352 11.4795L23.0164 10.6349L18.8297 3.8054L18.3169 2.9668L17.786 2.10406L17.3215 1.34389L17.0259 0.867275H16.7726H16.5312L16.7726 1.25339ZM15.7289 0.867275H15.3368H15.2825V12.5051H15.7289V1.51282L16.2175 2.30315L16.7726 3.20209L17.3215 4.10705L17.786 4.86722L18.3169 5.72996L18.8297 6.56253L22.4734 12.5051H22.9983L18.8297 5.70583L18.3169 4.87929L17.786 4.01656L17.3215 3.25035L16.7726 2.35142L16.2175 1.45249L15.8556 0.867275H15.7289ZM18.3169 0.873308L18.3109 0.867275H17.786V1.04827L18.3169 1.911L18.8297 2.74357L23.0164 9.57305L23.5352 10.4237L24.0058 11.1839L24.5004 11.9984L24.8141 12.5051H24.9046H25.4234L24.9046 11.6545L24.5004 10.9908L24.0058 10.1764L23.5352 9.41015L23.0164 8.55948L18.8297 1.70588L18.3169 0.873308ZM24.0058 0.867275V7.64849L24.5004 8.46295V0.867275H24.0058ZM23.0164 6.04368L23.5352 6.88831V0.867275H23.0164V6.04368ZM23.0164 6.77369L19.4088 0.867275H18.8599L23.0164 7.66659L23.5352 8.51725L24.0058 9.27742L24.5004 10.0979L24.9046 10.7616L25.4898 11.7148L25.9724 12.5051H26.0629H26.4731V12.4327V0.867275H26.0629V11.757L25.4898 10.8159L24.9046 9.86264L24.5004 9.19899L24.0058 8.38452L23.5352 7.62435L23.0164 6.77369ZM24.9046 9.12056L25.4898 10.0738V0.867275H24.9046V9.12056ZM16.7726 12.5051V4.05275L16.2175 3.14779V12.5051H16.7726ZM17.786 12.5051V5.71186L17.3215 4.95169V12.5051H17.786ZM13.907 0.897441V12.5051H13.3942V0.897441H13.907ZM12.8634 0.897441V12.5051H12.3566V0.897441H12.8634ZM11.8257 0.897441V12.5051H11.319V0.897441H11.8257ZM10.7881 0.897441V12.5051H10.2753V0.897441H10.7881ZM1.04532 0.897441V12.5051H0.538574V0.897441H1.04532ZM4.16422 5.83252H8.97228V6.3393H4.16422V6.85815H8.97228V7.36493H4.16422V7.85361H8.97228V8.36643H4.16422V12.487H3.65144V0.879341H4.15819H4.16422H9.15929V1.39216H4.16422V1.90497H9.15929V2.41778H4.16422V2.90646H9.15929V3.41325H4.16422V5.83252ZM3.12057 0.891407V12.4991H2.61382V0.891407H3.12057ZM2.08294 0.879341V12.487H1.5762V0.879341H2.08294ZM69.7094 5.4464H72.3035V5.95318H69.7094V6.47203H72.3035V6.98484H69.7094V7.46749H72.3035V7.98031H69.7094V9.97123H74.9941V10.478H69.7094V10.9969H74.9941V11.5036H69.7094V11.9923H74.9941V12.5051H69.7034V12.487H69.1967V0.879341H69.7034H69.7094H74.9941V1.39216H69.7094V1.90497H74.9941V2.41778H69.7094V2.90646H74.9941V3.41325H69.7094V5.4464ZM68.6658 0.891407V12.4991H68.159V0.891407H68.6658ZM67.6282 0.879341V12.487H67.1214V0.879341H67.6282Z" fill="#1B1918"/>
</svg>
