<svg width="75" height="15" viewBox="0 0 75 15" fill="none" xmlns="http://www.w3.org/2000/svg">
<path fill-rule="evenodd" clip-rule="evenodd" d="M19.2789 14.2788C22.9937 14.2788 26.0062 11.2661 26.0062 7.54574C26.0062 3.82537 22.9937 0.817993 19.2789 0.817993C15.5642 0.817993 12.5517 3.82537 12.5517 7.54574C12.5517 11.2661 15.5642 14.2788 19.2789 14.2788ZM4.86486 8.58036L7.6469 13.8982H7.80235H12.3962H12.5517L9.2979 7.68512L12.5517 1.46664H12.3962H7.80235H7.6469L4.86486 6.78451V1.60602H4.70941V1.53633H0.64624V13.8339H0.796331V13.8982H4.86486V8.58036ZM70.8351 1.4452V7.18657L67.5009 1.4452H67.1525H63.3413H62.9982V13.8982H67.1525V8.00676L70.5832 13.8982H70.8351H74.7375H74.9948V1.4452H70.8351ZM53.5318 12.4455H57.5145L56.3299 9.36839H54.7057L53.5318 12.4455ZM54.7057 9.36839L55.5151 7.24553L53.2906 1.46664L48.5466 13.8982H52.9743L53.5318 12.4455L54.7057 9.36839ZM53.2906 1.46664L55.5151 7.24553L57.7182 1.46664H53.2906ZM56.3299 9.36839L57.5145 12.4455L58.0774 13.8982H62.5051L57.7182 1.46664L55.5151 7.24553L56.3299 9.36839ZM44.8265 13.7803H48.1339V10.3977V7.07399H44.5263H44.0868V9.75973C43.4703 10.1993 42.6877 10.3065 41.9748 10.3065C40.5275 10.3065 39.3536 9.13252 39.3536 7.68512C39.3536 6.23235 40.5275 5.05835 41.9748 5.05835C42.9504 5.05835 43.8027 5.59442 44.253 6.38245L47.6193 4.02372C46.4239 2.17426 44.3387 0.952012 41.9748 0.952012C38.26 0.952012 35.2422 3.96475 35.2422 7.68512C35.2422 11.4001 38.26 14.4129 41.9748 14.4129C42.9933 14.4129 43.9581 14.1877 44.8265 13.7803ZM34.824 13.8607V10.7515H30.6376V1.33799H26.6066V13.8607C29.3457 13.8607 32.0849 13.8607 34.824 13.8607ZM21.9002 7.54574C21.9002 8.9985 20.7262 10.1725 19.2789 10.1725C17.8316 10.1725 16.6577 8.9985 16.6577 7.54574C16.6577 6.09833 17.8316 4.92433 19.2789 4.92433C20.7262 4.92433 21.9002 6.09833 21.9002 7.54574Z" fill="#333333"/>
</svg>
